# xmcd CD database file
#
# Track frame offsets:
#	150
#	15382
#	35017
#	53140
#	69896
#	86351
#	102637
#	115436
#	134477
#	150411
#	165273
#
# Disc length: 2525 seconds
#
# Revision: 1
# Processed by: cddbd v1.5.1PL2 Copyright (c) Steve Scherf et al.
# Submitted via: CDex 1.50beta9
#
DISCID=8309db0b
DTITLE=Esteban - Por Ti
DYEAR=2005
DGENRE=Salsa
TTITLE0=Candela
TTITLE1=Tal Vez
TTITLE2=No Lo Pienses
TTITLE3=A tu Lado
TTITLE4=Te Amo
TTITLE5=Si no es Amandote
TTITLE6=Dile que vuelva
TTITLE7=Pasando Pasando
TTITLE8=Mas que nunca
TTITLE9=Cuando estoy contigo
TTITLE10=Candela (Dance Mix)
EXTD=YEAR: 2005
EXTT0=
EXTT1=
EXTT2=
EXTT3=
EXTT4=
EXTT5=
EXTT6=
EXTT7=
EXTT8=
EXTT9=
EXTT10=
PLAYORDER=
